<svg width="800" height="60" viewBox="0 0 800 60" xmlns="http://www.w3.org/2000/svg">
  <!-- Background -->
  <rect width="800" height="60" fill="#0a0a0a" />
  
  <!-- Glitch effect lines -->
  <rect x="0" y="25" width="800" height="2" fill="#ff00ff" opacity="0.7" />
  <rect x="100" y="35" width="600" height="1" fill="#00ffff" opacity="0.8" />
  <rect x="200" y="15" width="400" height="1" fill="#ff00ff" opacity="0.6" />
  
  <!-- Circuit-like patterns -->
  <path d="M0,30 L50,30 L50,20 L100,20 L100,40 L150,40 L150,30 L200,30" fill="none" stroke="#00ffff" stroke-width="1" />
  <path d="M800,30 L750,30 L750,20 L700,20 L700,40 L650,40 L650,30 L600,30" fill="none" stroke="#ff00ff" stroke-width="1" />
  
  <!-- Center element -->
  <circle cx="400" cy="30" r="15" fill="none" stroke="#ff00ff" stroke-width="1" />
  <circle cx="400" cy="30" r="10" fill="none" stroke="#00ffff" stroke-width="1" />
  <circle cx="400" cy="30" r="5" fill="#ff00ff" opacity="0.5" />
  
  <!-- Scanline effect -->
  <g opacity="0.1">
    <rect x="0" y="10" width="800" height="1" fill="#ffffff" />
    <rect x="0" y="20" width="800" height="1" fill="#ffffff" />
    <rect x="0" y="30" width="800" height="1" fill="#ffffff" />
    <rect x="0" y="40" width="800" height="1" fill="#ffffff" />
    <rect x="0" y="50" width="800" height="1" fill="#ffffff" />
  </g>
  
  <!-- Digital noise dots -->
  <g fill="#00ffff" opacity="0.5">
    <circle cx="100" cy="15" r="1" />
    <circle cx="150" cy="45" r="1" />
    <circle cx="250" cy="25" r="1" />
    <circle cx="350" cy="15" r="1" />
    <circle cx="450" cy="45" r="1" />
    <circle cx="550" cy="25" r="1" />
    <circle cx="650" cy="15" r="1" />
    <circle cx="750" cy="45" r="1" />
  </g>
  <g fill="#ff00ff" opacity="0.5">
    <circle cx="125" cy="25" r="1" />
    <circle cx="175" cy="35" r="1" />
    <circle cx="275" cy="15" r="1" />
    <circle cx="375" cy="25" r="1" />
    <circle cx="475" cy="35" r="1" />
    <circle cx="575" cy="15" r="1" />
    <circle cx="675" cy="25" r="1" />
    <circle cx="775" cy="35" r="1" />
  </g>
</svg>